Coordinates
version=1
nRows=17
nColumns=40
inDegrees=yes

Units are S.I. units (second, meters, Newtons, ...)
Angles are in degrees.

endheader
time	pelvis_tilt	pelvis_list	pelvis_rotation	pelvis_tx	pelvis_ty	pelvis_tz	hip_flexion_r	hip_adduction_r	hip_rotation_r	knee_angle_r	knee_angle_r_beta	ankle_angle_r	subtalar_angle_r	mtp_angle_r	hip_flexion_l	hip_adduction_l	hip_rotation_l	knee_angle_l	knee_angle_l_beta	ankle_angle_l	subtalar_angle_l	mtp_angle_l	lumbar_extension	lumbar_bending	lumbar_rotation	arm_flex_r	arm_add_r	arm_rot_r	elbow_flex_r	pro_sup_r	wrist_flex_r	wrist_dev_r	arm_flex_l	arm_add_l	arm_rot_l	elbow_flex_l	pro_sup_l	wrist_flex_l	wrist_dev_l
     57.45000000	     -3.09805173	     -3.70520155	      5.93882429	      1.16072072	      0.92293717	      0.44278783	      0.87449270	     -0.71283208	    -13.55912417	     23.48983909	     23.48983909	     18.59150481	     -1.10715050	     -4.75057204	     24.97794354	     -5.46484756	     -2.42351921	     26.18032222	     26.18032222	      7.09647041	    -13.98311705	      1.94857135	     -8.26605568	      3.42697522	      3.76128987	     24.47086000	    -18.91940162	     -2.12923667	     91.93010278	     44.99687462	      0.00000000	      0.00000000	     -1.72496110	     -7.41650762	     -5.15034380	     28.58764034	     44.72602965	      0.00000000	      0.00000000
     57.46314286	     -3.10322462	     -3.62206064	      5.74073030	      1.16090916	      0.92368919	      0.44031976	      1.98683376	     -1.36114208	    -13.23174240	     26.19870393	     26.19870393	     18.04068323	     -1.89326691	     -5.66634305	     24.41699785	     -5.34122427	     -2.79702500	     26.00868291	     26.00868291	      7.54877084	    -13.77532060	      1.79655549	     -8.27533020	      3.25643591	      3.81959260	     23.03346482	    -18.87262625	     -1.56092379	     90.18489217	     45.03015799	      0.00000000	      0.00000000	     -0.78968005	     -7.58120655	     -5.14379832	     28.99281154	     44.75248997	      0.00000000	      0.00000000
     57.47628571	     -3.16035272	     -3.63033369	      5.51308922	      1.16084086	      0.92435391	      0.43799629	      3.30951341	     -1.89232225	    -12.71593163	     29.00366403	     29.00366403	     16.55700939	     -3.24828123	     -8.41561780	     23.96506506	     -5.30101130	     -3.06778061	     25.87554010	     25.87554010	      7.85503590	    -13.67371014	      1.58245409	     -8.22468075	      3.15815290	      3.54129297	     22.18254610	    -18.62594453	     -0.47711232	     86.85644659	     45.10347423	      0.00000000	      0.00000000	     -0.02690001	     -7.78614082	     -5.06128818	     29.53930333	     44.79411457	      0.00000000	      0.00000000
     57.48942857	     -3.18067764	     -3.44571863	      5.22036555	      1.16062412	      0.92508280	      0.43571212	      4.90478886	     -2.75831342	    -12.28919069	     32.42179130	     32.42179130	     15.45679211	     -4.12209647	     -9.60046579	     23.35107379	     -5.10711755	     -3.65466005	     25.55692796	     25.55692796	      8.04799011	    -13.48720727	      1.45448572	     -8.35329810	      2.88027611	      3.54302019	     20.76284416	    -18.55512969	      0.09062691	     85.33707864	     45.12902204	      0.00000000	      0.00000000	      0.88153709	     -8.00396405	     -5.09823544	     30.16224517	     44.82434654	      0.00000000	      0.00000000
     57.50257143	     -3.14254415	     -3.43648034	      4.98300393	      1.16036886	      0.92566570	      0.43355440	      6.40056326	     -3.30221032	    -11.64153430	     35.43615150	     35.43615150	     12.28720022	     -6.48138423	    -15.61961326	     22.74090736	     -5.02350863	     -3.78611049	     25.29512616	     25.29512616	      8.20359410	    -13.57553203	      0.78619274	     -8.39301944	      2.81178298	      2.76223901	     20.60727003	    -17.84022655	      1.81488827	     80.98714436	     45.21650280	      0.00000000	      0.00000000	      1.07227844	     -8.40421683	     -4.98583890	     31.75365923	     44.89336887	      0.00000000	      0.00000000
     57.51571429	     -3.06673321	     -3.28584127	      4.69275510	      1.15989142	      0.92622005	      0.43144554	      8.25023196	     -4.14124717	    -11.09533101	     39.30889454	     39.30889454	     10.78020598	     -7.32815912	    -16.21248078	     22.12323197	     -4.84017275	     -4.16433202	     25.11749794	     25.11749794	      8.49975019	    -13.49580479	      0.64149704	     -8.66969345	      2.61783550	      2.92173056	     18.98557963	    -17.76485427	      2.29516608	     79.60136023	     45.23886994	      0.00000000	      0.00000000	      2.21893085	     -8.59898624	     -5.03285825	     32.46042072	     44.92530358	      0.00000000	      0.00000000
     57.52885714	     -3.10720241	     -3.19268110	      4.35828970	      1.15924188	      0.92652800	      0.42952691	     10.36940380	     -4.84601590	    -10.33281677	     43.23215085	     43.23215085	      8.79437668	     -8.47189657	    -16.87646643	     21.66953599	     -4.70961782	     -4.47768348	     24.95965341	     24.95965341	      8.72860818	    -13.53351178	      0.49460264	     -8.75624397	      2.50161957	      3.17847606	     17.44252554	    -17.76651318	      2.71868982	     77.45292880	     45.28817914	      0.00000000	      0.00000000	      3.31290704	     -8.77916428	     -5.02423377	     33.31309870	     44.95032349	      0.00000000	      0.00000000
     57.54200000	     -3.00514316	     -3.09556327	      4.04105582	      1.15854375	      0.92689745	      0.42773312	     12.39151481	     -5.51531336	     -9.59283950	     47.10621664	     47.10621664	      6.58033834	     -9.52913094	    -17.26724317	     21.12282007	     -4.59610952	     -4.78538660	     24.90492686	     24.90492686	      8.98135227	    -13.59627771	      0.33889839	     -9.05877472	      2.38635550	      3.26654399	     16.02068547	    -17.53771976	      3.12882587	     75.34633407	     45.33690341	      0.00000000	      0.00000000	      4.46736695	     -9.00262093	     -4.98147053	     34.16770800	     44.96924193	      0.00000000	      0.00000000
     57.55514286	     -2.99217976	     -3.14288127	      3.70572413	      1.15777484	      0.92720199	      0.42617164	     14.47700257	     -5.84918020	     -8.64890184	     50.60857708	     50.60857708	      3.51333181	    -11.33491987	    -18.90276891	     20.67527430	     -4.61746822	     -4.98498463	     24.79245494	     24.79245494	      9.11080153	    -13.80113425	     -0.06394087	     -9.04259383	      2.38890374	      2.33475850	     16.58282739	    -16.27028537	      4.01357255	     68.53198449	     45.52209599	      0.00000000	      0.00000000	      4.31372209	     -9.77847542	     -4.03446696	     36.61215962	     44.92262048	      0.00000000	      0.00000000
     57.56828571	     -2.86699863	     -3.15973573	      3.36851323	      1.15700286	      0.92752292	      0.42467273	     16.51612142	     -6.20014596	     -7.76549640	     54.16634351	     54.16634351	      1.27749383	    -12.14224337	    -18.07346634	     20.18092553	     -4.64176519	     -5.25812341	     24.84182202	     24.84182202	      9.39857846	    -13.89722765	     -0.19683161	     -9.32891293	      2.43416122	      2.54365402	     15.20583134	    -16.23115787	      4.50283610	     65.84480706	     45.58234930	      0.00000000	      0.00000000	      5.39600412	    -10.02460855	     -3.83277337	     37.96122227	     44.94699706	      0.00000000	      0.00000000
     57.58142857	     -2.79785802	     -3.14816487	      3.03766919	      1.15620801	      0.92778721	      0.42334095	     18.64269583	     -6.54303535	     -6.93461115	     57.62200077	     57.62200077	     -0.29641249	    -12.24144752	    -15.57442997	     19.70801596	     -4.64215007	     -5.55920128	     24.81225830	     24.81225830	      9.71856268	    -13.84525420	     -0.29007350	     -9.46519098	      2.43740265	      2.06396156	     14.88710852	    -15.29983373	      4.73051714	     61.08534863	     45.71575360	      0.00000000	      0.00000000	      5.80457740	    -10.69362230	     -3.05497706	     39.81797149	     44.93878186	      0.00000000	      0.00000000
     57.59457143	     -2.67336728	     -3.19811614	      2.69936011	      1.15543689	      0.92812497	      0.42215536	     20.62583208	     -6.73281782	     -6.13468510	     60.71857847	     60.71857847	     -1.49113983	    -12.06208557	    -12.51141018	     19.22093739	     -4.71676088	     -5.83576408	     24.86933615	     24.86933615	     10.07355790	    -13.86273744	     -0.30746629	     -9.69184819	      2.52896002	      1.89779785	     14.15966763	    -14.76532028	      4.95088501	     57.14472709	     45.81207412	      0.00000000	      0.00000000	      6.43702239	    -11.25228001	     -2.45761167	     41.66166915	     44.97579579	      0.00000000	      0.00000000
     57.60771429	     -2.60818805	     -3.28021792	      2.36803897	      1.15464336	      0.92847571	      0.42107097	     22.48776477	     -6.78937283	     -5.36457747	     63.23476967	     63.23476967	     -2.99819403	    -12.28533972	    -11.36359993	     18.77267365	     -4.81844199	     -6.10440946	     24.85555726	     24.85555726	     10.33290317	    -13.90337994	     -0.34249872	     -9.88655919	      2.70152740	      2.29570430	     12.51548302	    -14.86893100	      5.13695313	     54.94593708	     45.86601340	      0.00000000	      0.00000000	      7.63875365	    -11.32444887	     -2.42389457	     42.83932004	     45.01407037	      0.00000000	      0.00000000
     57.62085714	     -2.45462758	     -3.39435697	      2.07040668	      1.15395393	      0.92901432	      0.42013642	     24.20597828	     -6.79845281	     -4.74751068	     65.53876513	     65.53876513	     -2.94906663	    -11.45648462	     -7.01554099	     18.22103365	     -4.96034454	     -6.33095398	     24.85643727	     24.85643727	     10.76014348	    -13.80793517	     -0.25662934	    -10.08501341	      2.85963415	      1.72396798	     12.45316597	    -13.76102353	      4.56883107	     49.57771570	     46.03949558	      0.00000000	      0.00000000	      7.94754220	    -12.12627009	     -1.64836191	     44.99886652	     45.05462767	      0.00000000	      0.00000000
     57.63400000	     -2.32724240	     -3.56400684	      1.75986242	      1.15327887	      0.92962607	      0.41930095	     25.69720455	     -6.67420234	     -4.22141314	     67.14236627	     67.14236627	     -3.33649781	    -11.17636705	     -5.16366006	     17.66368201	     -5.15675694	     -6.55992634	     24.77930897	     24.77930897	     11.10596831	    -13.75682690	     -0.23229277	    -10.29274650	      3.12394732	      1.80432016	     11.39422856	    -13.49482906	      4.37723435	     46.43095537	     46.12382562	      0.00000000	      0.00000000	      8.77267607	    -12.44618568	     -1.50176294	     46.69330252	     45.13662442	      0.00000000	      0.00000000
     57.64714286	     -2.30281414	     -3.69712791	      1.44320555	      1.15249827	      0.93018248	      0.41861412	     27.12906288	     -6.53763237	     -3.76924666	     68.20383792	     68.20383792	     -3.73662907	    -11.17435141	     -4.78743517	     17.17393621	     -5.29795494	     -6.78078191	     24.60624338	     24.60624338	     11.32935432	    -13.78905033	     -0.20830304	    -10.44144553	      3.35175431	      2.07790899	      9.79020086	    -13.58704483	      4.45948208	     44.75703224	     46.16458691	      0.00000000	      0.00000000	      9.85482536	    -12.52723007	     -1.60956060	     47.83670109	     45.18312506	      0.00000000	      0.00000000
     57.66028571	     -2.21601896	     -3.92115741	      1.14926827	      1.15175091	      0.93094476	      0.41803674	     28.33962464	     -6.31474371	     -3.52555628	     68.81369612	     68.81369612	     -3.21592346	    -10.73874124	     -2.81943131	     16.60449505	     -5.54320079	     -6.97365394	     24.41697125	     24.41697125	     11.60956880	    -13.72435244	     -0.12977256	    -10.61893389	      3.67435834	      1.63305020	      9.74185949	    -12.79881748	      3.61404810	     39.85388968	     46.34903314	      0.00000000	      0.00000000	      9.94647668	    -13.22913132	     -1.33285230	     50.51126297	     45.27463623	      0.00000000	      0.00000000
